<svg width="252" height="251" viewBox="0 0 252 251" fill="none" xmlns="http://www.w3.org/2000/svg">
<path d="M190.233 163.939C185.212 166.838 180.003 170.654 175.037 175.624C164.918 185.831 160.198 196.684 157.977 203.05C160.802 202.324 164.698 201.17 169.223 199.318C176.136 196.444 184.5 191.902 192.563 184.676C204.851 173.716 210.805 161.736 213.518 155.099C208.939 156.041 199.996 158.296 190.233 163.939Z" fill="#F9B53F"/>
<path d="M116.424 201.977C116.011 200.578 116.836 199.102 118.261 198.67L129.316 195.502C130.741 195.098 132.25 195.905 132.688 197.3C133.1 198.699 132.278 200.175 130.85 200.607L119.798 203.775C119.552 203.856 119.278 203.885 119.028 203.885C117.849 203.885 116.782 203.131 116.424 201.977ZM138.258 137.211L133.074 123.939C132.553 122.569 133.237 121.036 134.637 120.526C136.034 119.992 137.6 120.689 138.121 122.059L143.304 135.331C143.825 136.698 143.138 138.23 141.742 138.74C141.412 138.847 141.083 138.928 140.78 138.928C139.709 138.928 138.667 138.283 138.258 137.211ZM198.734 134.442C197.475 133.664 197.117 131.996 197.913 130.789L203.755 121.897C204.55 120.661 206.251 120.314 207.484 121.093C208.747 121.871 209.101 123.536 208.309 124.746L202.467 133.635C201.946 134.414 201.067 134.846 200.188 134.846C199.696 134.871 199.201 134.736 198.734 134.442ZM182.361 192.44C182.882 192.44 183.403 192.305 183.87 191.983C185.103 191.176 185.433 189.512 184.611 188.302C182.553 185.292 178.165 179.975 172.103 178.255C164.918 176.24 158.197 178.148 151.697 179.975C149.942 180.46 148.296 180.942 146.622 181.317C142.975 182.177 139.134 182.85 135.979 181.855C132.553 180.782 129.616 177.933 127.203 175.274C126.216 174.173 124.487 174.092 123.391 175.058C122.266 176.028 122.183 177.72 123.17 178.793C126.078 181.989 129.671 185.455 134.333 186.906C138.75 188.276 143.467 187.498 147.884 186.45C149.667 186.018 151.451 185.536 153.176 185.027C159.21 183.331 164.889 181.72 170.594 183.306C173.832 184.22 177.286 187.094 180.111 191.204C180.632 192.008 181.483 192.44 182.361 192.44Z" fill="#3BA27A"/>
<path d="M143.113 215.596C141.658 215.273 140.725 213.85 141.054 212.427L142.563 205.899C142.892 204.473 144.346 203.588 145.8 203.885C147.255 204.207 148.185 205.63 147.855 207.053L146.347 213.581C146.075 214.817 144.95 215.649 143.713 215.649C143.522 215.677 143.304 215.649 143.113 215.596ZM114.04 168.64C113.078 167.511 113.215 165.847 114.369 164.905C116.206 163.375 119.303 161.439 123.611 160.795C128.52 160.044 132.525 161.414 134.471 162.299C135.816 162.919 136.42 164.502 135.788 165.818C135.158 167.135 133.538 167.726 132.195 167.107C130.796 166.463 127.945 165.496 124.433 166.034C121.39 166.491 119.166 167.886 117.849 168.99C117.357 169.419 116.727 169.606 116.123 169.606C115.327 169.606 114.56 169.284 114.04 168.64ZM192.563 187.335C193.387 187.335 194.183 186.988 194.704 186.315C195.608 185.161 195.388 183.494 194.209 182.609C188.833 178.524 185.433 174.01 184.17 169.178C182.662 163.429 184.282 158.324 186.008 152.925C187.874 147.042 190.012 140.379 187.874 132.509C186.583 127.699 183.953 123.242 180.083 119.266C179.041 118.218 177.341 118.165 176.273 119.185C175.203 120.208 175.148 121.872 176.19 122.919C179.428 126.251 181.62 129.929 182.662 133.851C184.391 140.245 182.662 145.643 180.853 151.339C178.987 157.223 177.04 163.294 178.932 170.491C180.524 176.509 184.554 181.99 190.917 186.797C191.412 187.176 191.988 187.335 192.563 187.335Z" fill="#446DB7"/>
<path d="M210.885 147.417C210.555 145.994 211.463 144.571 212.914 144.248L221.364 142.368C222.818 142.046 224.269 142.931 224.601 144.355C224.927 145.778 224.023 147.204 222.569 147.526L214.122 149.406C213.93 149.459 213.71 149.459 213.518 149.459C212.284 149.459 211.16 148.627 210.885 147.417ZM192.563 184.704C196.1 181.561 199.092 178.336 201.642 175.193C203.783 172.534 205.621 169.928 207.155 167.485C210.201 162.622 212.23 158.271 213.518 155.155L227.481 189.887L230.99 198.617L252 251L242.978 246.408L235.269 242.486L196.404 222.661L187.9 218.335L157.977 203.078C165.164 201.223 179.207 196.603 192.563 184.704ZM162.86 138.928C163.71 138.928 164.56 138.527 165.081 137.774C165.931 136.566 165.631 134.927 164.394 134.095C163.243 133.316 160.473 131.086 159.651 127.164C159.018 124.155 159.869 121.656 160.447 120.42C161.048 119.078 160.447 117.521 159.076 116.929C157.702 116.338 156.113 116.929 155.509 118.271C154.685 120.073 153.426 123.779 154.356 128.237C155.564 134.039 159.622 137.317 161.323 138.471C161.789 138.768 162.339 138.928 162.86 138.928Z" fill="#F14947"/>
<path d="M192.563 214.951C195.25 214.951 197.446 217.072 197.446 219.734C197.446 220.835 197.063 221.854 196.43 222.661L187.929 218.336C188.533 216.374 190.396 214.951 192.563 214.951ZM227.481 189.887L230.99 198.617C230.249 199.074 229.399 199.318 228.465 199.318C225.778 199.318 223.585 197.194 223.585 194.535C223.585 192.252 225.257 190.316 227.481 189.887ZM178.136 199.881C180.824 199.881 183.02 202.03 183.02 204.664C183.02 207.294 180.853 209.443 178.136 209.443C175.449 209.443 173.256 207.322 173.256 204.664C173.256 202.03 175.423 199.881 178.136 199.881ZM217.743 210.197C220.431 210.197 222.623 212.318 222.623 214.976C222.623 217.61 220.457 219.759 217.743 219.759C215.027 219.759 212.86 217.638 212.86 214.976C212.86 212.318 215.055 210.197 217.743 210.197ZM240.153 237.757C242.841 237.757 245.033 239.88 245.033 242.539C245.033 244.15 244.237 245.548 243.004 246.433L235.27 242.486C235.298 239.852 237.462 237.757 240.153 237.757ZM207.155 167.457C208.747 168.236 209.843 169.847 209.843 171.727C209.843 174.361 207.676 176.509 204.963 176.509C203.672 176.509 202.467 176 201.617 175.193C203.784 172.534 205.621 169.928 207.155 167.457ZM126.574 146.291C130.22 144.893 137.654 142.932 146.293 145.243C157.401 148.224 163.218 156.256 165.19 159.588C165.96 160.848 165.519 162.462 164.231 163.213C163.793 163.454 163.327 163.588 162.86 163.588C161.927 163.588 161.022 163.106 160.527 162.271C158.884 159.506 154.055 152.844 144.867 150.373C137.737 148.44 131.566 150.104 128.549 151.233C127.149 151.771 125.586 151.07 125.037 149.729C124.487 148.384 125.174 146.826 126.574 146.291Z" fill="#F9B53F"/>
<path d="M143.413 213.634C143.221 213.581 143.113 213.418 143.167 213.231L144.838 206.246C144.896 206.058 145.059 205.952 145.251 206.005C145.442 206.058 145.551 206.221 145.497 206.409L143.825 213.393C143.797 213.553 143.659 213.662 143.496 213.662C143.467 213.634 143.442 213.634 143.413 213.634ZM199.942 132.669C199.779 132.563 199.722 132.375 199.833 132.212L205.755 123.001C205.867 122.838 206.059 122.813 206.222 122.891C206.388 123.001 206.442 123.188 206.334 123.348L200.409 132.563C200.354 132.669 200.242 132.722 200.134 132.722C200.051 132.697 199.996 132.697 199.942 132.669ZM163.215 160.742C161.489 157.973 156.443 151.233 147.005 148.277C137.871 145.377 129.92 147.767 126.929 148.896C126.766 148.95 126.574 148.868 126.491 148.706C126.408 148.546 126.516 148.33 126.682 148.277C130.466 146.826 138.2 144.786 147.197 147.633C156.826 150.667 162.01 157.573 163.793 160.391C163.902 160.554 163.848 160.742 163.681 160.848C163.627 160.876 163.573 160.901 163.518 160.901C163.41 160.901 163.298 160.848 163.215 160.742ZM190.316 186.637C190.204 186.503 190.204 186.287 190.342 186.181C195.445 181.855 200.025 176.941 203.918 171.567C206.8 167.62 209.322 163.375 211.434 158.968C211.518 158.809 211.709 158.727 211.872 158.809C212.039 158.887 212.122 159.074 212.039 159.237C209.897 163.669 207.376 167.942 204.467 171.943C200.546 177.369 195.938 182.34 190.783 186.666C190.725 186.719 190.645 186.744 190.562 186.744C190.479 186.744 190.37 186.719 190.316 186.637ZM181.84 207.779C181.674 207.669 181.649 207.457 181.757 207.322C183.212 205.333 182.799 202.54 180.824 201.116C179.865 200.419 178.603 200.122 177.369 200.338C176.107 200.553 175.011 201.251 174.298 202.299C174.186 202.458 173.995 202.486 173.832 202.38C173.665 202.271 173.64 202.083 173.748 201.923C174.57 200.713 175.807 199.934 177.261 199.693C178.657 199.449 180.111 199.775 181.236 200.578C183.486 202.217 183.979 205.414 182.307 207.697C182.25 207.779 182.141 207.832 182.032 207.832C181.978 207.832 181.895 207.804 181.84 207.779ZM244.621 244.419C244.458 244.366 244.349 244.178 244.403 243.99C245.059 242.001 244.292 239.824 242.537 238.751C240.945 237.785 238.862 237.891 237.353 239.02C237.216 239.126 236.995 239.101 236.887 238.967C236.778 238.832 236.804 238.617 236.941 238.51C238.696 237.218 241.083 237.084 242.895 238.213C244.924 239.449 245.8 241.92 245.033 244.231C244.979 244.366 244.841 244.472 244.704 244.472C244.704 244.419 244.678 244.419 244.621 244.419ZM217.743 220.056C217.935 220.056 218.072 219.893 218.072 219.734C218.072 219.543 217.906 219.408 217.743 219.408C215.247 219.408 213.218 217.422 213.218 214.976C213.218 212.533 215.247 210.544 217.743 210.544C217.935 210.544 218.072 210.384 218.072 210.222C218.072 210.062 217.906 209.899 217.743 209.899C214.864 209.899 212.531 212.183 212.531 215.004C212.531 217.772 214.864 220.056 217.743 220.056Z" fill="#3A5471"/>
<path d="M75.4942 50.7213C80.8855 53.8377 86.4818 57.9339 91.8116 63.2673C102.68 74.2284 107.743 85.8817 110.131 92.7198C107.097 91.9407 102.915 90.7001 98.0536 88.7106C90.6329 85.6242 81.6508 80.7489 72.9933 72.9879C59.7986 61.2209 53.4063 48.3572 50.4919 41.2314C55.4083 42.2413 65.0088 44.6656 75.4942 50.7213Z" fill="#F9B53F"/>
<path d="M154.748 91.5664C155.188 90.065 154.307 88.48 152.776 88.0185L140.907 84.6145C139.373 84.1798 137.754 85.0459 137.282 86.5473C136.841 88.0453 137.726 89.6336 139.257 90.0951L151.126 93.4991C151.389 93.5827 151.686 93.6128 151.949 93.6128C153.217 93.6128 154.365 92.8069 154.748 91.5664ZM131.307 22.0213L136.872 7.77318C137.433 6.30189 136.695 4.65672 135.191 4.10833C133.691 3.5332 132.011 4.28221 131.454 5.7535L125.885 20.0016C125.328 21.4729 126.062 23.118 127.566 23.6664C127.917 23.7801 128.273 23.8671 128.594 23.8671C129.745 23.8671 130.863 23.1749 131.307 22.0213ZM66.365 19.0519C67.7214 18.2126 68.1041 16.4237 67.2499 15.1263L60.9771 5.57962C60.123 4.25212 58.2952 3.87761 56.9695 4.71691C55.6166 5.55287 55.2339 7.33848 56.0881 8.63589L62.3608 18.1859C62.9177 19.0218 63.8607 19.4833 64.8037 19.4833C65.3332 19.51 65.8628 19.3663 66.365 19.0519ZM83.9466 81.3242C83.3863 81.3242 82.8294 81.1804 82.3271 80.836C81.0015 79.9699 80.6496 78.181 81.5311 76.8836C83.7416 73.6534 88.453 67.9422 94.9615 66.0964C102.679 63.9329 109.895 65.9793 116.875 67.9422C118.758 68.4605 120.528 68.9787 122.321 69.3834C126.24 70.3063 130.364 71.0285 133.75 69.9618C137.433 68.8082 140.583 65.7486 143.172 62.893C144.235 61.7126 146.09 61.6257 147.269 62.6622C148.475 63.7022 148.564 65.5179 147.505 66.6715C144.382 70.1056 140.525 73.8273 135.516 75.3822C130.774 76.8535 125.71 76.0175 120.968 74.894C119.055 74.4325 117.138 73.9109 115.283 73.3625C108.805 71.5468 102.707 69.8147 96.5809 71.5167C93.1063 72.4998 89.396 75.5862 86.3621 79.9967C85.8018 80.8627 84.8895 81.3242 83.9466 81.3242Z" fill="#F14947"/>
<path d="M126.093 106.189C127.654 105.844 128.655 104.313 128.3 102.785L126.681 95.7761C126.329 94.248 124.767 93.295 123.206 93.6126C121.645 93.9604 120.644 95.4885 120.996 97.0167L122.618 104.025C122.912 105.353 124.118 106.246 125.444 106.246C125.649 106.276 125.885 106.246 126.093 106.189ZM157.31 55.7705C158.342 54.5566 158.195 52.771 156.958 51.7612C154.983 50.116 151.656 48.0395 147.033 47.3473C141.761 46.5381 137.46 48.0094 135.369 48.9624C133.927 49.6245 133.278 51.3265 133.954 52.7409C134.634 54.1554 136.37 54.7874 137.815 54.1253C139.315 53.4331 142.38 52.3932 146.148 52.9717C149.418 53.4632 151.803 54.9612 153.217 56.145C153.747 56.6064 154.423 56.807 155.072 56.807C155.926 56.807 156.75 56.4626 157.31 55.7705ZM72.9931 75.8435C72.1082 75.8435 71.2541 75.469 70.6938 74.7501C69.7235 73.5095 69.9592 71.7206 71.2233 70.7676C76.9973 66.3838 80.6496 61.5386 82.0025 56.3456C83.622 50.1729 81.8864 44.6923 80.0312 38.8941C78.0291 32.5776 75.7298 25.4251 78.0291 16.9753C79.4128 11.8091 82.2383 7.02402 86.3928 2.75394C87.51 1.62707 89.3379 1.57022 90.4858 2.667C91.6338 3.76378 91.6919 5.55273 90.5746 6.67626C87.1 10.2542 84.7426 14.2066 83.622 18.4165C81.7668 25.2814 83.622 31.0796 85.566 37.1921C87.5715 43.512 89.6624 50.0291 87.6296 57.76C85.9213 64.2203 81.5926 70.1055 74.7595 75.2684C74.2299 75.673 73.6115 75.8435 72.9931 75.8435Z" fill="#446DB7"/>
<path d="M53.3173 32.9822C53.6726 31.4541 52.6989 29.9259 51.1375 29.5782L42.0666 27.5585C40.5052 27.2141 38.9473 28.1637 38.592 29.6952C38.2401 31.2234 39.2104 32.7515 40.7717 33.0992L49.8427 35.1156C50.0476 35.1758 50.2834 35.1758 50.4918 35.1758C51.8174 35.1758 53.0235 34.2796 53.3173 32.9822ZM72.9932 73.018C69.194 69.644 65.9824 66.1832 63.2423 62.8059C60.9464 59.9502 58.9717 57.1548 57.3249 54.5299C54.0553 49.3068 51.8755 44.6355 50.4918 41.2883L35.5 78.5854L31.7316 87.9582L9.17212 144.205L18.858 139.273L27.1363 135.063L68.8694 113.776L77.9984 109.131L110.131 92.7466C102.413 90.757 87.3358 85.7947 72.9932 73.018ZM104.887 23.8669C103.974 23.8669 103.062 23.4356 102.502 22.6263C101.59 21.3289 101.914 19.5701 103.236 18.6773C104.477 17.8413 107.449 15.4471 108.334 11.2339C109.01 8.00376 108.098 5.322 107.48 3.9945C106.831 2.55331 107.48 0.878045 108.952 0.24606C110.425 -0.389269 112.133 0.24606 112.779 1.68725C113.664 3.61999 115.02 7.59915 114.016 12.3875C112.721 18.6171 108.361 22.1381 106.537 23.3787C106.035 23.693 105.447 23.8669 104.887 23.8669Z" fill="#3BA27A"/>
<path d="M72.9931 105.497C70.1061 105.497 67.7487 107.774 67.7487 110.629C67.7487 111.813 68.1621 112.91 68.8386 113.776L77.9676 109.131C77.3219 107.025 75.3198 105.497 72.9931 105.497ZM35.5 78.5855L31.7315 87.9583C32.5276 88.4498 33.4398 88.7106 34.4408 88.7106C37.3278 88.7106 39.6818 86.4301 39.6818 83.5745C39.6818 81.1235 37.8847 79.047 35.5 78.5855ZM88.4837 89.3159C85.5967 89.3159 83.2393 91.6231 83.2393 94.4487C83.2393 97.2776 85.566 99.5848 88.4837 99.5848C91.3707 99.5848 93.7247 97.3043 93.7247 94.4487C93.7247 91.6231 91.398 89.3159 88.4837 89.3159ZM45.9546 100.391C43.0676 100.391 40.7136 102.671 40.7136 105.527C40.7136 108.352 43.0403 110.66 45.9546 110.66C48.8723 110.66 51.199 108.382 51.199 105.527C51.199 102.671 48.8416 100.391 45.9546 100.391ZM21.8919 129.987C19.0083 129.987 16.6509 132.264 16.6509 135.12C16.6509 136.852 17.505 138.35 18.8306 139.303L27.1363 135.063C27.1055 132.234 24.7788 129.987 21.8919 129.987ZM57.3248 54.4999C55.6166 55.3358 54.4379 57.0679 54.4379 59.0876C54.4379 61.9131 56.7645 64.2204 59.6788 64.2204C61.0625 64.2204 62.3608 63.672 63.273 62.806C60.9464 59.9503 58.9716 57.1549 57.3248 54.4999ZM143.852 31.7718C139.933 30.2704 131.952 28.1638 122.676 30.6449C110.749 33.8483 104.504 42.4721 102.382 46.05C101.559 47.4042 102.03 49.1364 103.414 49.9422C103.885 50.203 104.388 50.3468 104.887 50.3468C105.888 50.3468 106.861 49.8285 107.391 48.9324C109.157 45.9631 114.34 38.8106 124.207 36.1556C131.864 34.0791 138.492 35.868 141.731 37.0785C143.234 37.657 144.911 36.9046 145.499 35.4634C146.09 34.0222 145.352 32.347 143.852 31.7718Z" fill="#F9B53F"/>
<path d="M125.768 104.082C125.973 104.025 126.093 103.851 126.032 103.651L124.238 96.1505C124.176 95.9499 124.002 95.8329 123.794 95.8931C123.589 95.9499 123.473 96.1238 123.531 96.3244L125.328 103.825C125.355 103.995 125.502 104.112 125.68 104.112C125.71 104.082 125.738 104.082 125.768 104.082ZM65.0702 17.1458C65.2444 17.0321 65.3059 16.8314 65.1863 16.6576L58.8247 6.76314C58.7086 6.58926 58.5001 6.56251 58.3259 6.64945C58.1482 6.76314 58.0902 6.96377 58.2063 7.13765L64.5679 17.0321C64.626 17.1458 64.7456 17.2059 64.8617 17.2059C64.9506 17.1758 65.0087 17.1758 65.0702 17.1458ZM104.504 47.2904C106.359 44.3178 111.778 37.0784 121.911 33.9051C131.717 30.7919 140.258 33.3567 143.47 34.5705C143.644 34.6273 143.852 34.5404 143.941 34.3665C144.026 34.1926 143.91 33.9619 143.733 33.9051C139.67 32.3468 131.365 30.1566 121.703 33.2129C111.368 36.4731 105.799 43.8864 103.886 46.9126C103.769 47.0865 103.827 47.2904 104.005 47.4041C104.063 47.4342 104.121 47.461 104.179 47.461C104.299 47.461 104.415 47.4041 104.504 47.2904ZM75.4052 75.0944C75.5248 74.9506 75.5248 74.7199 75.3779 74.6062C69.8977 69.9616 64.9813 64.6817 60.7995 58.9136C57.7075 54.6736 54.9982 50.116 52.7296 45.3844C52.6408 45.2139 52.4358 45.127 52.2581 45.2139C52.0805 45.2975 51.9916 45.5015 52.0805 45.6754C54.3798 50.4336 57.0891 55.018 60.2084 59.3182C64.421 65.1432 69.3682 70.4799 74.9064 75.1245C74.9645 75.1814 75.0533 75.2114 75.1421 75.2114C75.231 75.2114 75.3471 75.1814 75.4052 75.0944ZM84.5069 97.7957C84.6845 97.6787 84.7119 97.448 84.5957 97.3042C83.0343 95.1708 83.4751 92.1714 85.5967 90.6432C86.6285 89.8909 87.9815 89.5732 89.3071 89.8039C90.6635 90.0347 91.8388 90.787 92.6075 91.9106C92.7237 92.0844 92.9287 92.1145 93.1063 91.9975C93.284 91.8838 93.3113 91.6798 93.1951 91.506C92.3103 90.2085 90.9846 89.3726 89.4267 89.1118C87.9234 88.8543 86.3621 89.1987 85.156 90.0648C82.7405 91.8236 82.211 95.2577 84.0046 97.7088C84.0661 97.7957 84.1823 97.8526 84.3019 97.8526C84.36 97.8526 84.4488 97.8225 84.5069 97.7957ZM17.0916 137.139C17.2693 137.082 17.3889 136.878 17.3274 136.678C16.6236 134.541 17.447 132.207 19.3329 131.053C21.0412 130.014 23.279 130.131 24.8984 131.341C25.0454 131.455 25.2811 131.428 25.4007 131.284C25.5168 131.14 25.4861 130.91 25.3392 130.793C23.4567 129.408 20.8943 129.265 18.9502 130.475C16.7705 131.803 15.8275 134.458 16.6509 136.935C16.7124 137.082 16.8593 137.196 17.0062 137.196C17.0062 137.139 17.0336 137.139 17.0916 137.139ZM45.9546 110.977C45.7496 110.977 45.6027 110.803 45.6027 110.629C45.6027 110.429 45.7804 110.285 45.9546 110.285C48.6366 110.285 50.8163 108.152 50.8163 105.527C50.8163 102.902 48.6366 100.765 45.9546 100.765C45.7496 100.765 45.6027 100.594 45.6027 100.421C45.6027 100.247 45.7804 100.073 45.9546 100.073C49.05 100.073 51.5509 102.527 51.5509 105.553C51.5509 108.526 49.05 110.977 45.9546 110.977Z" fill="#3A5471"/>
</svg>
