
<svg width="274" height="274" viewBox="0 0 1em 1em" fill="none" xmlns="http://www.w3.org/2000/svg">
    <path d="M228.646 152.477C228.646 204.665 186.299 246.975 134.057 246.975C117.986 246.975 102.852 242.972 89.5959 235.908C84.7152 233.307 80.0915 230.294 75.7728 226.906C53.6708 209.61 39.4678 182.697 39.4678 152.477C39.4678 145.905 40.1367 139.494 41.4157 133.297C43.9898 120.828 49.0203 109.263 55.9827 99.1163C61.3343 91.3137 67.8257 84.3567 75.2162 78.4807C91.3619 65.6423 111.816 57.9735 134.057 57.9735C146.135 57.9735 157.689 60.2372 168.307 64.3579C203.616 78.0686 228.646 112.351 228.646 152.477Z" fill="#B7EFFD"/>
    <path d="M99.3839 205.072C90.3077 213.795 90.024 234.286 89.5959 235.908C84.7153 233.307 80.0915 230.294 75.7728 226.906C72.8669 218.488 64.5292 194.396 62.1905 191.404C61.04 189.927 51.9102 182.622 53.521 166.236C53.7452 163.955 54.0508 156.667 49.2719 154.125C42.5664 150.558 41.6512 140.896 41.4158 133.297C45.9646 111.243 58.209 91.9987 75.2162 78.4807C80.9692 76.9073 86.7596 76.1528 89.5638 78.2078C91.5974 79.7008 91.9827 82.7191 91.1425 85.0952C90.5378 86.797 89.4461 88.258 88.2259 89.6119C87.7496 90.1524 69.4687 109.161 66.3755 111.532C63.4803 113.747 55.972 118.805 55.3031 119.388C50.1549 123.857 46.184 129.931 45.9914 136.684C45.7719 144.3 51.8299 152.225 59.4559 152.059C60.9864 152.022 67.9831 153.781 70.0948 154.484C81.4776 158.272 85.5876 171.705 86.8184 173.23C89.9919 177.153 96.1088 176.484 100.722 178.539C105.511 180.679 113.364 191.636 99.3839 205.072ZM227.723 139.161C226.448 139.135 217.14 139.274 218.873 146.625C219.288 148.383 224.498 151.449 222.775 159.507C221.068 167.488 211.08 211.493 199.47 218.517C196.752 220.159 183.157 226.371 176.847 210.007C174.614 204.217 174.871 181.354 174.938 176.217C175.012 170.965 172.713 161.395 162.508 162.196C128.973 164.828 127.32 135.977 131.703 126.804C136.085 117.628 147.837 106.63 163.306 106.939C170.166 107.076 175.767 112.221 181.732 115.613C194.1 122.64 209.075 123.124 222.276 118.379C224.846 124.977 226.692 131.938 227.723 139.161Z" fill="#9BE69D"/>
    <path opacity="0.1" d="M168.307 64.3579C164.266 69.7469 160.188 74.5419 156.089 78.7911C133.104 102.654 109.504 109.423 88.2258 107.807C80.9745 107.261 59.6324 100.786 55.9827 99.1163C61.3342 91.3138 67.8257 84.3567 75.2162 78.4807C91.3619 65.6423 111.816 57.9735 134.057 57.9735C146.135 57.9735 157.689 60.2372 168.307 64.3579Z" fill="black"/>
    <path d="M218.925 120.119C223.896 113.548 224.101 104.854 219.57 98.0945L227.964 90.3632C230.756 91.2728 233.836 91.2109 236.567 90.1528C238.683 89.333 239.073 86.6878 237.45 85.1935L226.352 74.9749C224.726 73.4775 221.85 73.8395 220.96 75.7947C219.791 78.3563 219.741 81.2459 220.782 83.8508L212.442 91.5326C205.098 87.3592 195.663 87.5479 188.528 92.1266C186.845 93.2063 186.707 95.4803 188.158 96.8168L213.832 120.462C215.283 121.796 217.749 121.669 218.925 120.119Z" fill="#FABD3B"/>
    <path d="M174.903 132.664L197.47 105.322L204.594 111.883L174.903 132.664Z" fill="#E2E2E2"/>
    <path d="M238.633 84.0984L227.538 73.8797C226.332 72.7691 224.598 72.2834 222.919 72.5927C221.31 72.8836 220.03 73.8333 219.409 75.1946C218.216 77.8119 218.031 80.6984 218.864 83.427L212.163 89.5991C204.383 85.7164 194.87 86.1681 187.564 90.8582C186.378 91.6162 185.626 92.8259 185.495 94.1685C185.36 95.5607 185.898 96.9251 186.966 97.9089L195.209 105.501L173.563 131.733C173.056 132.349 173.12 133.215 173.711 133.762C174.037 134.062 174.467 134.214 174.9 134.214C175.256 134.214 175.612 134.109 175.918 133.898L204.4 113.962L212.643 121.554C213.604 122.439 214.897 122.928 216.248 122.928C216.399 122.928 216.55 122.922 216.704 122.909C218.166 122.789 219.476 122.096 220.299 121.004C225.388 114.278 225.882 105.513 221.666 98.3482L228.431 92.1174C231.357 92.8413 234.437 92.6588 237.215 91.5791C238.69 91.0098 239.718 89.8342 240.034 88.3523C240.363 86.7992 239.842 85.209 238.633 84.0984ZM183.694 124.568L197.611 107.704L202.005 111.75L183.694 124.568ZM235.915 88.7266C233.574 89.6331 230.95 89.695 228.522 88.9061C227.914 88.705 227.232 88.8473 226.775 89.2711L218.381 97.0024C217.83 97.5098 217.729 98.2987 218.139 98.9082C222.358 105.204 222.126 113.183 217.544 119.237C217.195 119.698 216.681 119.806 216.409 119.828C215.888 119.875 215.384 119.701 215.018 119.367L205.915 110.983C205.864 110.921 205.841 110.847 205.78 110.791L198.656 104.229C198.595 104.174 198.515 104.152 198.447 104.106L189.344 95.7216C188.981 95.3875 188.797 94.9203 188.844 94.4408C188.867 94.1871 188.985 93.7169 189.485 93.3951C192.925 91.1862 196.939 90.0755 200.963 90.0755C204.625 90.0755 208.3 90.9975 211.555 92.8475C212.213 93.2219 213.07 93.1321 213.624 92.6248L221.965 84.9461C222.428 84.5191 222.58 83.8818 222.354 83.3188C221.447 81.0541 221.501 78.5977 222.502 76.395C222.751 75.8535 223.272 75.6834 223.564 75.6308C224.148 75.5287 224.746 75.6896 225.159 76.0701L236.255 86.2888C236.664 86.6662 236.846 87.2262 236.735 87.7583C236.681 88.0213 236.5 88.5008 235.915 88.7266Z" fill="#1A4875"/>
</svg>